<svg width="40" height="40" viewBox="0 0 40 40" fill="none" xmlns="http://www.w3.org/2000/svg">
<path d="M20 30C20.5667 30 21.042 29.808 21.426 29.424C21.8087 29.0413 22 28.5667 22 28V22H28.05C28.6167 22 29.0833 21.808 29.45 21.424C29.8167 21.0413 30 20.5667 30 20C30 19.4333 29.808 18.958 29.424 18.574C29.0413 18.1913 28.5667 18 28 18H22V11.95C22 11.3833 21.8087 10.9167 21.426 10.55C21.042 10.1833 20.5667 10 20 10C19.4333 10 18.9587 10.1913 18.576 10.574C18.192 10.958 18 11.4333 18 12V18H11.95C11.3833 18 10.9167 18.1913 10.55 18.574C10.1833 18.958 10 19.4333 10 20C10 20.5667 10.1913 21.0413 10.574 21.424C10.958 21.808 11.4333 22 12 22H18V28.05C18 28.6167 18.192 29.0833 18.576 29.45C18.9587 29.8167 19.4333 30 20 30ZM20 40C17.2333 40 14.6333 39.4747 12.2 38.424C9.76667 37.3747 7.65 35.95 5.85 34.15C4.05 32.35 2.62533 30.2333 1.576 27.8C0.525334 25.3667 0 22.7667 0 20C0 17.2333 0.525334 14.6333 1.576 12.2C2.62533 9.76667 4.05 7.65 5.85 5.85C7.65 4.05 9.76667 2.62467 12.2 1.574C14.6333 0.524667 17.2333 0 20 0C22.7667 0 25.3667 0.524667 27.8 1.574C30.2333 2.62467 32.35 4.05 34.15 5.85C35.95 7.65 37.3747 9.76667 38.424 12.2C39.4747 14.6333 40 17.2333 40 20C40 22.7667 39.4747 25.3667 38.424 27.8C37.3747 30.2333 35.95 32.35 34.15 34.15C32.35 35.95 30.2333 37.3747 27.8 38.424C25.3667 39.4747 22.7667 40 20 40ZM20 36C24.4333 36 28.2087 34.442 31.326 31.326C34.442 28.2087 36 24.4333 36 20C36 15.5667 34.442 11.7913 31.326 8.674C28.2087 5.558 24.4333 4 20 4C15.5667 4 11.792 5.558 8.676 8.674C5.55867 11.7913 4 15.5667 4 20C4 24.4333 5.55867 28.2087 8.676 31.326C11.792 34.442 15.5667 36 20 36Z" fill="#DCDCDD"/>
</svg>
