<svg width="140" height="35" viewBox="0 0 140 35" fill="none" xmlns="http://www.w3.org/2000/svg">
<path style="mix-blend-mode:multiply" d="M11.665 22.7115C18.1075 22.7115 23.3301 17.6379 23.3301 11.3792C23.3301 5.12044 18.1075 0.0467529 11.665 0.0467529C5.22262 0.0467529 0 5.12044 0 11.3792C0 17.6379 5.22262 22.7115 11.665 22.7115Z" fill="url(#paint0_linear_574_2534)"/>
<path style="mix-blend-mode:multiply" d="M27.9961 18.9339C27.994 16.9315 27.1737 15.0119 25.7155 13.5968C24.2573 12.1816 22.2805 11.3867 20.2194 11.3867C18.1583 11.3867 16.1815 12.1816 14.7233 13.5968C13.2651 15.0119 12.4448 16.9315 12.4427 18.9339V26.4888C12.4448 28.4912 13.2651 30.4108 14.7233 31.8259C16.1815 33.2411 18.1583 34.036 20.2194 34.036C22.2805 34.036 24.2573 33.2411 25.7155 31.8259C27.1737 30.4108 27.994 28.4912 27.9961 26.4888V18.9339Z" fill="url(#paint1_linear_574_2534)"/>
<path style="mix-blend-mode:multiply" d="M18.2052 16.3579C17.1114 15.2953 15.6279 14.6984 14.081 14.6984C12.5341 14.6984 11.0506 15.2953 9.95679 16.358L1.70836 24.3711C0.614547 25.4338 4.57764e-05 26.875 4.57764e-05 28.3778C4.57764e-05 29.8805 0.614547 31.3217 1.70836 32.3844C2.80217 33.447 4.28569 34.044 5.83257 34.044C7.37945 34.044 8.86298 33.447 9.95679 32.3844L18.2052 24.3712C19.299 23.3086 19.9135 21.8673 19.9135 20.3646C19.9135 18.8618 19.299 17.4205 18.2052 16.3579Z" fill="url(#paint2_linear_574_2534)"/>
<path d="M41.3211 9.28123H48.6593V26.489H45.8505V19.8025H42.9911L38.2593 26.489H34.9951L39.8282 19.655C38.5807 19.4412 37.4513 18.8055 36.6398 17.8605C35.8475 16.9282 35.4255 15.7507 35.4506 14.5419C35.43 13.8363 35.5649 13.1345 35.8464 12.4836C36.1279 11.8328 36.5494 11.248 37.0827 10.7685C38.2399 9.75168 39.7622 9.21752 41.3211 9.28123ZM41.3211 17.3198H45.8506V11.7148H41.3211C40.9257 11.7004 40.5314 11.7637 40.1618 11.901C39.7922 12.0382 39.4549 12.2467 39.1704 12.5138C38.6348 13.051 38.3353 13.7695 38.3353 14.5173C38.3353 15.2651 38.6348 15.9836 39.1704 16.5208C39.4549 16.788 39.7921 16.9965 40.1617 17.1338C40.5313 17.2711 40.9257 17.3344 41.3211 17.3198Z" fill="#280064"/>
<path d="M59.4386 13.6815C60.2354 13.6691 61.0248 13.8318 61.7478 14.1574C62.4708 14.483 63.1087 14.9632 63.6137 15.562C64.6952 16.8851 65.2838 18.5248 65.2838 20.2143C65.2838 21.9037 64.6952 23.5435 63.6137 24.8665C63.1068 25.4624 62.4682 25.9397 61.7454 26.2631C61.0227 26.5865 60.2343 26.7477 59.4386 26.7348C58.2872 26.7559 57.1642 26.3864 56.2629 25.69C55.3328 24.9544 54.65 23.9657 54.302 22.8507V30.2055H51.645V13.9273H54.302V17.5655C54.6502 16.4506 55.333 15.462 56.2629 14.7263C57.1643 14.03 58.2872 13.6606 59.4386 13.6815ZM58.553 24.3503C59.0836 24.3587 59.6099 24.2566 60.0965 24.0509C60.5832 23.8453 61.0189 23.5408 61.3743 23.158C62.1161 22.3443 62.5257 21.295 62.5257 20.2081C62.5257 19.1212 62.1161 18.0719 61.3743 17.2583C61.0188 16.8755 60.5831 16.5711 60.0965 16.3654C59.6099 16.1598 59.0836 16.0577 58.553 16.0659C57.9886 16.0485 57.4265 16.1443 56.9019 16.3473C56.3773 16.5503 55.9014 16.8562 55.5039 17.2459C54.7315 18.0498 54.3019 19.1085 54.3019 20.2081C54.3019 21.3078 54.7315 22.3665 55.5039 23.1704C55.9014 23.5601 56.3773 23.866 56.9019 24.069C57.4265 24.272 57.9886 24.3678 58.553 24.3503Z" fill="#280064"/>
<path d="M82.9458 13.9274V26.489H80.5671V14.4191L77.5307 26.489H73.1784L70.142 14.4191V26.489H67.7633V13.9274H72.3687L75.3546 25.8252L78.3405 13.9274L82.9458 13.9274Z" fill="#280064"/>
<path d="M91.2452 13.6815C92.6147 13.6233 93.9606 14.0417 95.0409 14.8615C95.5373 15.2794 95.9279 15.8028 96.1825 16.3912C96.437 16.9795 96.5486 17.6169 96.5085 18.2539V26.4889H93.8515V23.1457C93.0585 25.5387 91.4643 26.735 89.069 26.7348C88.0478 26.7674 87.0522 26.4201 86.2857 25.7637C85.9192 25.445 85.6295 25.0518 85.4371 24.6121C85.2447 24.1724 85.1542 23.6969 85.1722 23.2194C85.1371 22.6859 85.2416 22.1525 85.4762 21.6689C85.7107 21.1853 86.0675 20.7673 86.5133 20.454C87.533 19.7961 88.709 19.4026 89.9295 19.3109L92.4345 19.0651C93.3791 18.9832 93.8514 18.5735 93.8515 17.8359C93.8606 17.5556 93.7998 17.2773 93.6742 17.0247C93.5487 16.7722 93.3621 16.5528 93.1304 16.3855C92.5822 16.0049 91.9182 15.8144 91.2452 15.8448C90.5263 15.8226 89.8198 16.0298 89.2336 16.4347C88.6682 16.8553 88.292 17.4718 88.1835 18.1555L85.5518 17.5409C85.6583 16.9723 85.8811 16.4302 86.2071 15.9467C86.5331 15.4633 86.9556 15.0483 87.4496 14.7263C88.5722 14.003 89.8989 13.6378 91.2452 13.6815ZM89.9295 24.6452C90.4434 24.6563 90.9543 24.5674 91.4324 24.3838C91.9104 24.2002 92.3457 23.9255 92.7128 23.5759C93.0715 23.2603 93.3581 22.8753 93.5542 22.4455C93.7504 22.0158 93.8516 21.5509 93.8515 21.0808V20.3925C93.6491 20.7205 93.1599 20.9253 92.3839 21.0071L89.9295 21.3021C89.3777 21.3511 88.8492 21.5419 88.3986 21.8551C88.2141 21.991 88.0661 22.1681 87.967 22.3714C87.8679 22.5746 87.8207 22.7981 87.8292 23.0228C87.8215 23.2492 87.869 23.4741 87.968 23.6792C88.0669 23.8843 88.2145 24.0637 88.3986 24.2028C88.8412 24.5171 89.3819 24.6734 89.9295 24.6452Z" fill="#280064"/>
<path d="M107.161 13.6815C107.958 13.6691 108.747 13.8318 109.47 14.1574C110.193 14.483 110.831 14.9632 111.336 15.562C112.418 16.8851 113.006 18.5248 113.006 20.2143C113.006 21.9037 112.418 23.5435 111.336 24.8665C110.829 25.4624 110.191 25.9397 109.468 26.2631C108.745 26.5865 107.957 26.7477 107.161 26.7348C106.01 26.7559 104.887 26.3864 103.985 25.69C103.055 24.9544 102.372 23.9657 102.024 22.8507V30.2055H99.3674V13.9273H102.024V17.5655C102.373 16.4506 103.055 15.462 103.985 14.7263C104.887 14.03 106.01 13.6606 107.161 13.6815ZM106.275 24.3503C106.806 24.3587 107.332 24.2566 107.819 24.0509C108.306 23.8453 108.741 23.5408 109.097 23.158C109.839 22.3443 110.248 21.295 110.248 20.2081C110.248 19.1212 109.839 18.0719 109.097 17.2583C108.741 16.8755 108.306 16.5711 107.819 16.3654C107.332 16.1598 106.806 16.0577 106.275 16.0659C105.711 16.0485 105.149 16.1443 104.624 16.3473C104.1 16.5503 103.624 16.8562 103.226 17.2459C102.454 18.0498 102.024 19.1085 102.024 20.2081C102.024 21.3078 102.454 22.3665 103.226 23.1704C103.624 23.5601 104.1 23.866 104.624 24.069C105.149 24.272 105.711 24.3678 106.275 24.3503Z" fill="#280064"/>
<path d="M127.404 13.9274L122.723 20.0238L127.809 26.489H124.596L120.395 21.3512H118.143V26.489H115.486V13.9274H118.143V19.0651H120.395L124.494 13.9274H127.404Z" fill="#280064"/>
<path d="M134.717 13.6815C136.087 13.6233 137.432 14.0417 138.513 14.8615C139.009 15.2794 139.4 15.8028 139.654 16.3912C139.909 16.9795 140.02 17.6169 139.98 18.2539V26.4889H137.323V23.1457C136.53 25.5387 134.936 26.735 132.541 26.7348C131.52 26.7674 130.524 26.4201 129.758 25.7637C129.391 25.445 129.101 25.0518 128.909 24.6121C128.717 24.1724 128.626 23.6969 128.644 23.2194C128.609 22.6859 128.713 22.1525 128.948 21.6689C129.183 21.1853 129.539 20.7673 129.985 20.454C131.005 19.7961 132.181 19.4026 133.401 19.3109L135.906 19.0651C136.851 18.9832 137.323 18.5735 137.323 17.8359C137.333 17.5556 137.272 17.2773 137.146 17.0247C137.021 16.7722 136.834 16.5528 136.602 16.3855C136.054 16.0049 135.39 15.8144 134.717 15.8448C133.998 15.8226 133.292 16.0298 132.705 16.4347C132.14 16.8553 131.764 17.4718 131.655 18.1555L129.024 17.5409C129.13 16.9723 129.353 16.4302 129.679 15.9467C130.005 15.4633 130.427 15.0483 130.921 14.7263C132.044 14.003 133.371 13.6378 134.717 13.6815ZM133.401 24.6452C133.915 24.6563 134.426 24.5674 134.904 24.3838C135.382 24.2002 135.818 23.9255 136.185 23.5759C136.543 23.2603 136.83 22.8753 137.026 22.4455C137.222 22.0158 137.324 21.5509 137.323 21.0808V20.3925C137.121 20.7205 136.632 20.9253 135.856 21.0071L133.401 21.3021C132.85 21.3511 132.321 21.5419 131.87 21.8551C131.686 21.991 131.538 22.1681 131.439 22.3714C131.34 22.5746 131.293 22.7981 131.301 23.0228C131.293 23.2492 131.341 23.4741 131.44 23.6792C131.539 23.8843 131.686 24.0637 131.87 24.2028C132.313 24.5171 132.854 24.6734 133.401 24.6452Z" fill="#280064"/>
<defs>
<linearGradient id="paint0_linear_574_2534" x1="3.43988" y1="19.4231" x2="19.4597" y2="2.93297" gradientUnits="userSpaceOnUse">
<stop stop-color="#FA78C8"/>
<stop offset="1" stop-color="#FFC800"/>
</linearGradient>
<linearGradient id="paint1_linear_574_2534" x1="20.2194" y1="34.0437" x2="20.2194" y2="11.379" gradientUnits="userSpaceOnUse">
<stop stop-color="#00C8FF"/>
<stop offset="1" stop-color="#3CDC50"/>
</linearGradient>
<linearGradient id="paint2_linear_574_2534" x1="1.70834" y1="32.3844" x2="17.7281" y2="15.8944" gradientUnits="userSpaceOnUse">
<stop stop-color="#7878FF"/>
<stop offset="0.99998" stop-color="#C864FF"/>
</linearGradient>
</defs>
</svg>
