<svg width="141" height="38" viewBox="0 0 141 38" fill="none" xmlns="http://www.w3.org/2000/svg">
<path style="mix-blend-mode:screen" d="M11.6734 25.856C18.1204 25.856 23.3467 20.7787 23.3467 14.5155C23.3467 8.25235 18.1204 3.17505 11.6734 3.17505C5.22635 3.17505 0 8.25235 0 14.5155C0 20.7787 5.22635 25.856 11.6734 25.856Z" fill="url(#paint0_linear_571_2236)"/>
<path style="mix-blend-mode:screen" d="M28.0161 22.0759C28.014 20.0721 27.1931 18.1511 25.7339 16.7349C24.2747 15.3188 22.2964 14.5233 20.2338 14.5233C18.1713 14.5233 16.193 15.3188 14.7338 16.7349C13.2746 18.1511 12.4537 20.0721 12.4516 22.0759V29.6362C12.4537 31.64 13.2746 33.561 14.7338 34.9771C16.193 36.3933 18.1713 37.1887 20.2338 37.1887C22.2964 37.1887 24.2747 36.3933 25.7339 34.9771C27.1931 33.561 28.014 31.64 28.0161 29.6362V22.0759Z" fill="url(#paint1_linear_571_2236)"/>
<path style="mix-blend-mode:screen" d="M18.2182 19.4978C17.1236 18.4344 15.639 17.837 14.0911 17.837C12.5431 17.837 11.0585 18.4344 9.96389 19.4978L1.70956 27.5167C0.614971 28.5801 3.05176e-05 30.0224 3.05176e-05 31.5262C3.05176e-05 33.03 0.614971 34.4723 1.70956 35.5357C2.80416 36.5991 4.28874 37.1965 5.83672 37.1965C7.38471 37.1965 8.8693 36.5991 9.96389 35.5357L18.2182 27.5168C19.3128 26.4534 19.9278 25.0111 19.9278 23.5073C19.9278 22.0034 19.3128 20.5612 18.2182 19.4978Z" fill="url(#paint2_linear_571_2236)"/>
<path d="M41.3507 12.4162H48.6941V29.6362H45.8833V22.945H43.0219L38.2866 29.6362H35.0201L39.8567 22.7974C38.6083 22.5835 37.478 21.9473 36.666 21.0016C35.8731 20.0686 35.4509 18.8903 35.476 17.6807C35.4553 16.9745 35.5903 16.2722 35.872 15.6209C36.1537 14.9697 36.5756 14.3844 37.1092 13.9046C38.2673 12.887 39.7906 12.3525 41.3507 12.4162ZM41.3507 20.4605H45.8833V14.8516H41.3507C40.955 14.8371 40.5603 14.9004 40.1905 15.0378C39.8206 15.1752 39.4832 15.3838 39.1984 15.6511C38.6624 16.1887 38.3627 16.9077 38.3627 17.656C38.3627 18.4044 38.6624 19.1234 39.1984 19.661C39.4831 19.9283 39.8205 20.137 40.1904 20.2744C40.5603 20.4118 40.9549 20.4751 41.3507 20.4605Z" fill="white"/>
<path d="M59.4811 16.8196C60.2785 16.8071 61.0684 16.9699 61.7919 17.2958C62.5154 17.6217 63.1538 18.1022 63.6592 18.7014C64.7414 20.0255 65.3305 21.6663 65.3305 23.357C65.3305 25.0477 64.7414 26.6886 63.6592 28.0126C63.1519 28.6089 62.5129 29.0865 61.7896 29.4102C61.0663 29.7338 60.2773 29.8951 59.4811 29.8822C58.3289 29.9033 57.2051 29.5336 56.3031 28.8367C55.3724 28.1005 54.6891 27.1111 54.3408 25.9953V33.3554H51.6819V17.0656H54.3408V20.7063C54.6893 19.5906 55.3726 18.6014 56.3031 17.8651C57.2052 17.1684 58.3289 16.7987 59.4811 16.8196ZM58.5948 27.496C59.1258 27.5044 59.6525 27.4022 60.1395 27.1964C60.6265 26.9906 61.0625 26.6859 61.4182 26.3028C62.1605 25.4886 62.5704 24.4385 62.5704 23.3509C62.5704 22.2632 62.1605 21.2131 61.4182 20.3989C61.0624 20.0159 60.6264 19.7112 60.1394 19.5054C59.6525 19.2996 59.1258 19.1974 58.5948 19.2057C58.03 19.1882 57.4675 19.2841 56.9426 19.4872C56.4176 19.6904 55.9413 19.9965 55.5436 20.3865C54.7706 21.191 54.3407 22.2504 54.3407 23.3509C54.3407 24.4513 54.7706 25.5108 55.5436 26.3152C55.9413 26.7052 56.4176 27.0113 56.9425 27.2145C57.4675 27.4176 58.03 27.5135 58.5948 27.496Z" fill="white"/>
<path d="M83.0051 17.0657V29.6362H80.6247V17.5577L77.5861 29.6362H73.2308L70.1922 17.5577V29.6362H67.8118V17.0657H72.4204L75.4084 28.972L78.3965 17.0657L83.0051 17.0657Z" fill="white"/>
<path d="M91.3104 16.8196C92.6808 16.7613 94.0277 17.18 95.1088 18.0004C95.6056 18.4186 95.9965 18.9424 96.2512 19.5312C96.5059 20.1199 96.6175 20.7578 96.5775 21.3952V29.6361H93.9186V26.2905C93.125 28.6852 91.5297 29.8824 89.1327 29.8821C88.1107 29.9148 87.1144 29.5672 86.3473 28.9104C85.9806 28.5915 85.6907 28.198 85.4981 27.758C85.3056 27.3179 85.2151 26.8421 85.2331 26.3643C85.1979 25.8304 85.3026 25.2966 85.5372 24.8127C85.7719 24.3287 86.129 23.9104 86.5752 23.5969C87.5956 22.9385 88.7724 22.5447 89.9937 22.453L92.5006 22.207C93.4458 22.1251 93.9185 21.7151 93.9186 20.977C93.9277 20.6964 93.8668 20.4179 93.7412 20.1652C93.6155 19.9124 93.4288 19.693 93.1969 19.5255C92.6484 19.1446 91.9839 18.954 91.3104 18.9844C90.591 18.9622 89.8839 19.1696 89.2973 19.5747C88.7316 19.9956 88.3551 20.6126 88.2465 21.2968L85.6129 20.6817C85.7195 20.1127 85.9424 19.5702 86.2687 19.0864C86.5949 18.6026 87.0177 18.1873 87.5121 17.8651C88.6355 17.1413 89.9632 16.7758 91.3104 16.8196ZM89.9937 27.7911C90.508 27.8022 91.0193 27.7133 91.4977 27.5295C91.976 27.3457 92.4117 27.0708 92.7791 26.721C93.138 26.4052 93.4248 26.0199 93.6211 25.5899C93.8174 25.1598 93.9187 24.6946 93.9186 24.2241V23.5354C93.716 23.8635 93.2265 24.0686 92.4499 24.1504L89.9937 24.4456C89.4415 24.4946 88.9127 24.6856 88.4617 24.999C88.2772 25.135 88.1291 25.3123 88.0299 25.5156C87.9307 25.719 87.8834 25.9426 87.892 26.1675C87.8842 26.3941 87.9318 26.6192 88.0308 26.8244C88.1299 27.0297 88.2775 27.2092 88.4617 27.3483C88.9047 27.6629 89.4458 27.8193 89.9937 27.7911Z" fill="white"/>
<path d="M107.238 16.8196C108.035 16.8071 108.825 16.9699 109.549 17.2958C110.272 17.6217 110.91 18.1022 111.416 18.7014C112.498 20.0255 113.087 21.6663 113.087 23.357C113.087 25.0477 112.498 26.6886 111.416 28.0126C110.908 28.6089 110.269 29.0865 109.546 29.4102C108.823 29.7338 108.034 29.8951 107.238 29.8822C106.085 29.9033 104.962 29.5336 104.06 28.8367C103.129 28.1005 102.446 27.1111 102.097 25.9953V33.3554H99.4385V17.0656H102.097V20.7063C102.446 19.5906 103.129 18.6014 104.06 17.8651C104.962 17.1684 106.085 16.7987 107.238 16.8196ZM106.351 27.496C106.882 27.5044 107.409 27.4022 107.896 27.1964C108.383 26.9906 108.819 26.6859 109.175 26.3028C109.917 25.4886 110.327 24.4385 110.327 23.3509C110.327 22.2632 109.917 21.2131 109.175 20.3989C108.819 20.0159 108.383 19.7112 107.896 19.5054C107.409 19.2996 106.882 19.1974 106.351 19.2057C105.787 19.1882 105.224 19.2841 104.699 19.4872C104.174 19.6904 103.698 19.9965 103.3 20.3865C102.527 21.191 102.097 22.2504 102.097 23.3509C102.097 24.4513 102.527 25.5108 103.3 26.3152C103.698 26.7052 104.174 27.0113 104.699 27.2145C105.224 27.4176 105.787 27.5135 106.351 27.496Z" fill="white"/>
<path d="M127.495 17.0657L122.811 23.1665L127.9 29.6362H124.685L120.481 24.4948H118.227V29.6362H115.569V17.0657H118.227V22.2071H120.481L124.583 17.0657H127.495Z" fill="white"/>
<path d="M134.813 16.8196C136.184 16.7613 137.531 17.18 138.612 18.0004C139.109 18.4186 139.5 18.9424 139.754 19.5312C140.009 20.1199 140.121 20.7578 140.08 21.3952V29.6361H137.422V26.2905C136.628 28.6852 135.033 29.8824 132.636 29.8821C131.614 29.9148 130.617 29.5672 129.85 28.9104C129.484 28.5915 129.194 28.198 129.001 27.758C128.809 27.3179 128.718 26.8421 128.736 26.3643C128.701 25.8304 128.806 25.2966 129.04 24.8127C129.275 24.3287 129.632 23.9104 130.078 23.5969C131.099 22.9385 132.275 22.5447 133.497 22.453L136.004 22.207C136.949 22.1251 137.421 21.7151 137.422 20.977C137.431 20.6964 137.37 20.4179 137.244 20.1652C137.119 19.9124 136.932 19.693 136.7 19.5255C136.151 19.1446 135.487 18.954 134.813 18.9844C134.094 18.9622 133.387 19.1696 132.8 19.5747C132.235 19.9956 131.858 20.6126 131.75 21.2968L129.116 20.6817C129.222 20.1127 129.445 19.5702 129.772 19.0864C130.098 18.6026 130.521 18.1873 131.015 17.8651C132.138 17.1413 133.466 16.7758 134.813 16.8196ZM133.497 27.7911C134.011 27.8022 134.522 27.7133 135.001 27.5295C135.479 27.3457 135.915 27.0708 136.282 26.721C136.641 26.4052 136.928 26.0199 137.124 25.5899C137.32 25.1598 137.422 24.6946 137.422 24.2241V23.5354C137.219 23.8635 136.73 24.0686 135.953 24.1504L133.497 24.4456C132.945 24.4946 132.416 24.6856 131.965 24.999C131.78 25.135 131.632 25.3123 131.533 25.5156C131.434 25.719 131.386 25.9426 131.395 26.1675C131.387 26.3941 131.435 26.6192 131.534 26.8244C131.633 27.0297 131.781 27.2092 131.965 27.3483C132.408 27.6629 132.949 27.8193 133.497 27.7911Z" fill="white"/>
<defs>
<linearGradient id="paint0_linear_571_2236" x1="3.44233" y1="22.5652" x2="19.4736" y2="6.06332" gradientUnits="userSpaceOnUse">
<stop stop-color="#FA78C8"/>
<stop offset="1" stop-color="#FFC800"/>
</linearGradient>
<linearGradient id="paint1_linear_571_2236" x1="20.2339" y1="37.1965" x2="20.2339" y2="14.5156" gradientUnits="userSpaceOnUse">
<stop stop-color="#00C8FF"/>
<stop offset="1" stop-color="#3CDC50"/>
</linearGradient>
<linearGradient id="paint2_linear_571_2236" x1="1.70955" y1="35.5357" x2="17.7407" y2="19.0339" gradientUnits="userSpaceOnUse">
<stop stop-color="#7878FF"/>
<stop offset="0.99998" stop-color="#C864FF"/>
</linearGradient>
</defs>
</svg>
